<svg width="175" height="96" viewBox="0 0 175 96" fill="none" xmlns="http://www.w3.org/2000/svg">
<path fill-rule="evenodd" clip-rule="evenodd" d="M38.1056 58.2234C38.1056 57.5021 37.7674 56.9273 37.0912 56.4991C32.7408 53.9068 27.7029 52.6107 21.9775 52.6107C18.9795 52.6107 15.7449 52.9939 12.2736 53.7603C11.3268 53.9632 10.8535 54.5493 10.8535 55.5185C10.8535 55.9693 11.0056 56.3582 11.3099 56.685C11.6142 57.0118 12.0143 57.1753 12.5102 57.1753C12.623 57.1753 13.04 57.0851 13.7613 56.9048C16.7367 56.2962 19.4754 55.9919 21.9775 55.9919C27.0717 55.9919 31.5461 57.1527 35.4006 59.4744C35.8289 59.7224 36.2008 59.8464 36.5164 59.8464C36.9447 59.8464 37.3166 59.6942 37.6322 59.3899C37.9477 59.0856 38.1055 58.6968 38.1056 58.2234ZM41.3515 50.954C41.3515 50.0523 40.957 49.3648 40.168 48.8915C34.8258 45.7132 28.6496 44.1241 21.6393 44.1241C18.1906 44.1241 14.7756 44.5974 11.3944 45.5441C10.3125 45.8372 9.7715 46.5585 9.7715 47.7081C9.7715 48.2716 9.96874 48.7506 10.3632 49.1451C10.7577 49.5395 11.2367 49.7367 11.8002 49.7367C11.958 49.7367 12.375 49.6466 13.0512 49.4662C15.8013 48.7224 18.6301 48.3505 21.5379 48.3505C27.8268 48.3505 33.3268 49.748 38.0379 52.5431C38.5789 52.8361 39.0072 52.9826 39.3228 52.9826C39.8863 52.9826 40.3653 52.7854 40.7597 52.391C41.1542 51.9965 41.3514 51.5175 41.3515 50.954ZM45.0031 42.5687C45.0031 41.5093 44.5523 40.7204 43.6506 40.2019C40.8104 38.5564 37.5082 37.311 33.7439 36.4658C29.9795 35.6205 26.1137 35.1978 22.1465 35.1978C17.5482 35.1978 13.4457 35.7275 9.83914 36.7869C9.32072 36.9447 8.88682 37.2321 8.53742 37.6491C8.18802 38.0661 8.01332 38.6127 8.01332 39.289C8.01332 39.9878 8.24436 40.5739 8.70644 41.0472C9.16855 41.5205 9.74899 41.7572 10.4477 41.7572C10.6957 41.7572 11.1465 41.6671 11.8002 41.4868C14.7982 40.6527 18.2582 40.2357 22.1803 40.2357C25.7644 40.2357 29.2526 40.6189 32.645 41.3853C36.0374 42.1517 38.8945 43.2224 41.2162 44.5974C41.6895 44.8679 42.1404 45.0031 42.5687 45.0031C43.2223 45.0031 43.7915 44.7721 44.2761 44.31C44.7608 43.8479 45.0031 43.2675 45.0031 42.5687ZM51.9344 47.6066C51.9344 52.3177 50.7736 56.6625 48.4519 60.6409C46.1301 64.6194 42.98 67.7695 39.0015 70.0913C35.0231 72.413 30.6783 73.5738 25.9672 73.5738C21.2561 73.5738 16.9114 72.413 12.9329 70.0913C8.95442 67.7696 5.80431 64.6195 3.48256 60.6409C1.16085 56.6625 0 52.3177 0 47.6066C0 42.8955 1.16085 38.5508 3.48256 34.5723C5.80431 30.5938 8.95442 27.4437 12.9329 25.122C16.9114 22.8003 21.2561 21.6394 25.9672 21.6394C30.6783 21.6394 35.0231 22.8003 39.0015 25.122C42.98 27.4437 46.1301 30.5938 48.4519 34.5723C50.7736 38.5508 51.9344 42.8955 51.9344 47.6066Z" fill="black"/>
<path d="M75.2378 42.5269C75.1469 41.6102 74.7568 40.8981 74.0674 40.3905C73.378 39.883 72.4424 39.6292 71.2605 39.6292C70.4575 39.6292 69.7795 39.7428 69.2265 39.9701C68.6734 40.1898 68.2492 40.4966 67.9537 40.8905C67.6658 41.2845 67.5219 41.7314 67.5219 42.2314C67.5068 42.6481 67.5939 43.0117 67.7833 43.3224C67.9802 43.633 68.2492 43.9019 68.5901 44.1292C68.931 44.3489 69.3249 44.5421 69.7719 44.7087C70.2189 44.8678 70.6961 45.0042 71.2037 45.1178L73.2946 45.6178C74.3098 45.8451 75.2416 46.1481 76.0901 46.5269C76.9386 46.9057 77.6734 47.3716 78.2946 47.9246C78.9158 48.4777 79.3969 49.1292 79.7378 49.8792C80.0863 50.6292 80.2643 51.489 80.2719 52.4587C80.2643 53.883 79.9007 55.1178 79.181 56.1633C78.4689 57.2011 77.4386 58.008 76.0901 58.5837C74.7492 59.1519 73.1318 59.436 71.2378 59.436C69.359 59.436 67.7227 59.1481 66.3287 58.5724C64.9424 57.9966 63.859 57.1443 63.0787 56.0155C62.306 54.8792 61.9007 53.4739 61.8628 51.7996H66.6242C66.6772 52.5799 66.9007 53.2314 67.2946 53.7542C67.6961 54.2693 68.2302 54.6595 68.8969 54.9246C69.5711 55.1822 70.3325 55.311 71.181 55.311C72.0143 55.311 72.7378 55.1898 73.3515 54.9474C73.9727 54.7049 74.4537 54.3678 74.7946 53.936C75.1355 53.5042 75.306 53.008 75.306 52.4474C75.306 51.9246 75.1507 51.4852 74.8401 51.1292C74.5371 50.7731 74.0901 50.4701 73.4992 50.2201C72.9158 49.9701 72.1999 49.7428 71.3515 49.5383L68.8174 48.9019C66.8552 48.4246 65.306 47.6784 64.1696 46.6633C63.0333 45.6481 62.4689 44.2807 62.4765 42.561C62.4689 41.1519 62.8439 39.9208 63.6015 38.8678C64.3666 37.8148 65.4158 36.9928 66.7492 36.4019C68.0825 35.811 69.5977 35.5155 71.2946 35.5155C73.0219 35.5155 74.5295 35.811 75.8174 36.4019C77.1128 36.9928 78.1204 37.8148 78.8401 38.8678C79.5598 39.9208 79.931 41.1405 79.9537 42.5269H75.2378ZM83.4907 65.6519V41.6519H88.2634V44.5837H88.4793C88.6914 44.114 88.9982 43.6367 89.3997 43.1519C89.8088 42.6595 90.3391 42.2504 90.9907 41.9246C91.6497 41.5913 92.4679 41.4246 93.4452 41.4246C94.7179 41.4246 95.8922 41.758 96.9679 42.4246C98.0437 43.0837 98.9035 44.0799 99.5475 45.4133C100.191 46.739 100.513 48.4019 100.513 50.4019C100.513 52.3489 100.199 53.9928 99.5702 55.3337C98.949 56.6671 98.1005 57.6784 97.0247 58.3678C95.9566 59.0496 94.7596 59.3905 93.4338 59.3905C92.4944 59.3905 91.6952 59.2352 91.0361 58.9246C90.3846 58.614 89.8505 58.2239 89.4338 57.7542C89.0172 57.2769 88.699 56.7958 88.4793 56.311H88.3316V65.6519H83.4907ZM88.2293 50.3792C88.2293 51.4171 88.3732 52.3224 88.6611 53.0951C88.949 53.8678 89.3657 54.4701 89.9111 54.9019C90.4566 55.3261 91.1194 55.5383 91.8997 55.5383C92.6876 55.5383 93.3543 55.3224 93.8997 54.8905C94.4452 54.4511 94.8581 53.8451 95.1384 53.0724C95.4263 52.2921 95.5702 51.3943 95.5702 50.3792C95.5702 49.3716 95.43 48.4852 95.1497 47.7201C94.8694 46.9549 94.4566 46.3564 93.9111 45.9246C93.3657 45.4928 92.6952 45.2769 91.8997 45.2769C91.1119 45.2769 90.4452 45.4852 89.8997 45.9019C89.3619 46.3186 88.949 46.9095 88.6611 47.6746C88.3732 48.4398 88.2293 49.3413 88.2293 50.3792ZM111.627 59.4474C109.862 59.4474 108.335 59.0724 107.047 58.3224C105.767 57.5648 104.779 56.5117 104.082 55.1633C103.385 53.8072 103.036 52.2352 103.036 50.4474C103.036 48.6443 103.385 47.0686 104.082 45.7201C104.779 44.364 105.767 43.311 107.047 42.561C108.335 41.8034 109.862 41.4246 111.627 41.4246C113.392 41.4246 114.915 41.8034 116.195 42.561C117.483 43.311 118.475 44.364 119.172 45.7201C119.869 47.0686 120.218 48.6443 120.218 50.4474C120.218 52.2352 119.869 53.8072 119.172 55.1633C118.475 56.5117 117.483 57.5648 116.195 58.3224C114.915 59.0724 113.392 59.4474 111.627 59.4474ZM111.65 55.6974C112.453 55.6974 113.123 55.4701 113.661 55.0155C114.199 54.5534 114.604 53.9246 114.877 53.1292C115.157 52.3337 115.297 51.4284 115.297 50.4133C115.297 49.3981 115.157 48.4928 114.877 47.6974C114.604 46.9019 114.199 46.2731 113.661 45.811C113.123 45.3489 112.453 45.1178 111.65 45.1178C110.839 45.1178 110.157 45.3489 109.604 45.811C109.059 46.2731 108.646 46.9019 108.366 47.6974C108.093 48.4928 107.957 49.3981 107.957 50.4133C107.957 51.4284 108.093 52.3337 108.366 53.1292C108.646 53.9246 109.059 54.5534 109.604 55.0155C110.157 55.4701 110.839 55.6974 111.65 55.6974ZM132.65 41.6519V45.2883H122.138V41.6519H132.65ZM124.525 37.4701H129.366V53.7428C129.366 54.1898 129.434 54.5383 129.57 54.7883C129.707 55.0307 129.896 55.2011 130.138 55.2996C130.388 55.3981 130.676 55.4474 131.002 55.4474C131.229 55.4474 131.457 55.4284 131.684 55.3905C131.911 55.3451 132.085 55.311 132.207 55.2883L132.968 58.8905C132.725 58.9663 132.385 59.0534 131.945 59.1519C131.506 59.258 130.972 59.3224 130.343 59.3451C129.176 59.3905 128.154 59.2352 127.275 58.8792C126.404 58.5231 125.725 57.9701 125.241 57.2201C124.756 56.4701 124.517 55.5231 124.525 54.3792V37.4701ZM135.803 59.1064V41.6519H140.644V59.1064H135.803ZM138.235 39.4019C137.515 39.4019 136.898 39.1633 136.383 38.686C135.875 38.2011 135.621 37.6216 135.621 36.9474C135.621 36.2807 135.875 35.7087 136.383 35.2314C136.898 34.7466 137.515 34.5042 138.235 34.5042C138.955 34.5042 139.568 34.7466 140.076 35.2314C140.591 35.7087 140.849 36.2807 140.849 36.9474C140.849 37.6216 140.591 38.2011 140.076 38.686C139.568 39.1633 138.955 39.4019 138.235 39.4019ZM153.908 41.6519V45.2883H143.136V41.6519H153.908ZM145.601 59.1064V40.3905C145.601 39.1254 145.848 38.0761 146.34 37.2428C146.84 36.4095 147.522 35.7845 148.386 35.3678C149.249 34.9511 150.23 34.7428 151.329 34.7428C152.071 34.7428 152.749 34.7996 153.363 34.9133C153.984 35.0269 154.446 35.1292 154.749 35.2201L153.886 38.8564C153.696 38.7958 153.461 38.739 153.181 38.686C152.908 38.633 152.628 38.6064 152.34 38.6064C151.628 38.6064 151.132 38.7731 150.851 39.1064C150.571 39.4322 150.431 39.8905 150.431 40.4814V59.1064H145.601ZM159.854 65.6519C159.241 65.6519 158.665 65.6027 158.127 65.5042C157.597 65.4133 157.157 65.2958 156.809 65.1519L157.9 61.5383C158.468 61.7125 158.979 61.8072 159.434 61.8224C159.896 61.8375 160.294 61.7314 160.627 61.5042C160.968 61.2769 161.244 60.8905 161.457 60.3451L161.741 59.6064L155.479 41.6519H160.57L164.184 54.4701H164.366L168.013 41.6519H173.138L166.354 60.9928C166.029 61.9322 165.585 62.7504 165.025 63.4474C164.472 64.1519 163.771 64.6936 162.922 65.0724C162.074 65.4587 161.051 65.6519 159.854 65.6519Z" fill="black"/>
</svg>
